<?xml version="1.0" encoding="UTF-8"?>
<svg version="1.1" xmlns="http://www.w3.org/2000/svg" width="235" height="293">
<path d="M0 0 C1.65 0 3.3 0 5 0 C5.21986572 0.55582764 5.43973145 1.11165527 5.66625977 1.68432617 C8.92718339 9.88584267 12.31884356 18.03249021 15.71557617 26.1784668 C18.88695502 33.78757717 21.9702792 41.4198964 24.87524414 49.13549805 C25.98995876 51.9744272 27.21346303 54.73522966 28.5 57.5 C31.30558052 63.55552318 33.64225351 69.75929813 36 76 C39.41826683 84.97650688 42.85267098 93.88535627 46.93359375 102.5859375 C48.57797463 106.30838214 49.7904561 110.11672748 51 114 C52.43980737 113.13611558 53.87959982 112.27220629 55.31933594 111.40820312 C56.62444559 110.62526936 57.92979046 109.8427276 59.23535156 109.06054688 C63.27711011 106.63811262 67.31314272 104.20657467 71.34375 101.765625 C72.24061523 101.22389648 73.13748047 100.68216797 74.06152344 100.12402344 C75.83702939 99.05149659 77.61114821 97.97666966 79.38378906 96.89941406 C80.20073242 96.40666992 81.01767578 95.91392578 81.859375 95.40625 C82.58608398 94.96603516 83.31279297 94.52582031 84.06152344 94.07226562 C86 93 86 93 89 92 C89.29296875 94.74609375 89.29296875 94.74609375 89 98 C86.98828125 100.16015625 86.98828125 100.16015625 84.3125 102.0625 C80.52290286 104.8078526 77.27199218 107.65226726 74 111 C72.07165787 112.80333237 70.13778638 114.59589074 68.1875 116.375 C67.65979004 116.85759277 67.13208008 117.34018555 66.58837891 117.83740234 C63.08920412 121.02905124 59.55201872 124.17181335 55.97265625 127.2734375 C53.72738635 129.23860442 51.52097427 131.24358518 49.3125 133.25 C44.89726049 137.23795827 40.3778842 141.08396743 35.82202148 144.90869141 C32.44584353 147.75142231 29.13811988 150.65193522 25.875 153.625 C21.27051971 157.80218452 16.4993247 161.73379392 11.66650391 165.64257812 C9.76215888 167.19372936 7.87076869 168.75988929 5.98046875 170.328125 C-1.4775884 176.51215378 -8.98357013 182.57977279 -16.6953125 188.4453125 C-20.50521673 191.36585307 -24.22000001 194.40078131 -27.9375 197.4375 C-38.49304456 206.05180943 -49.19022425 214.4410986 -60.109375 222.59008789 C-64.26645177 225.69332158 -68.39476214 228.82846272 -72.5 232 C-94.29227534 248.82831091 -116.58701374 265.01167865 -139 281 C-140.32 280.34 -141.64 279.68 -143 279 C-142.41736265 273.86870267 -139.98735848 269.83557581 -137.5625 265.375 C-136.64954978 263.66937241 -135.7367949 261.96364026 -134.82421875 260.2578125 C-134.3554834 259.38672852 -133.88674805 258.51564453 -133.40380859 257.61816406 C-131.20080431 253.5094653 -129.03966831 249.37898247 -126.875 245.25 C-123.55631813 238.9343189 -120.20195941 232.6388603 -116.82763672 226.3527832 C-114.63797327 222.25229194 -112.55311189 218.10860768 -110.5 213.9375 C-107.84829975 208.57986018 -104.98396771 203.40711491 -101.97827148 198.24536133 C-99.68317068 194.27496411 -97.58459325 190.24390588 -95.5625 186.125 C-93.03573797 180.97938439 -90.34214923 175.97764387 -87.5 171 C-84.03178904 164.92006145 -80.83040958 158.77146119 -77.7421875 152.48828125 C-75.91458268 148.82897384 -74.0034316 145.22489561 -72.0625 141.625 C-69.28139553 136.46066679 -66.60274728 131.25644141 -64 126 C-61.41780924 120.78517276 -58.7604928 115.62268208 -56 110.5 C-52.18398993 103.41112778 -48.57291549 96.22998318 -45 89.01611328 C-43.34187162 85.67313863 -41.67012857 82.33699038 -40 79 C-39.67435059 78.34805664 -39.34870117 77.69611328 -39.01318359 77.02441406 C-37.27810535 73.55083363 -35.53745317 70.08018211 -33.7890625 66.61328125 C-33.42683594 65.89333984 -33.06460938 65.17339844 -32.69140625 64.43164062 C-32.00035977 63.05840724 -31.30774883 61.68595957 -30.61328125 60.31445312 C-28.91167916 56.92875514 -27.34189059 53.54448878 -26 50 C-25.34 50 -24.68 50 -24 50 C-23.86271484 48.97326172 -23.86271484 48.97326172 -23.72265625 47.92578125 C-22.83795861 44.34395135 -21.22363516 41.38000105 -19.4375 38.1875 C-18.70654804 36.84993241 -17.97743954 35.51135607 -17.25 34.171875 C-16.68925781 33.14030273 -16.68925781 33.14030273 -16.1171875 32.08789062 C-14.32437702 28.73734097 -12.62702548 25.34102481 -10.9375 21.9375 C-10.61128662 21.28096436 -10.28507324 20.62442871 -9.94897461 19.94799805 C-9.29468224 18.62951208 -8.64095179 17.3107471 -7.98779297 15.99169922 C-6.33383942 12.65681216 -4.66629135 9.32873446 -3 6 C-2.4225 4.845 -1.845 3.69 -1.25 2.5 C-0.8375 1.675 -0.425 0.85 0 0 Z M0 65 C-0.40202637 65.80928955 -0.80405273 66.6185791 -1.21826172 67.45239258 C-8.97802279 83.05936423 -16.78465579 98.62638091 -25 114 C-26.54396707 116.8946139 -28.08579661 119.79035013 -29.625 122.6875 C-30.18175415 123.73538696 -30.18175415 123.73538696 -30.74975586 124.80444336 C-33.55468214 130.10649102 -36.24484522 135.45989766 -38.90844727 140.83398438 C-43.79907485 150.66589464 -48.92486109 160.38780701 -54.19140625 170.0234375 C-54.52068115 170.62712158 -54.84995605 171.23080566 -55.18920898 171.8527832 C-56.0618978 173.44721048 -56.94086347 175.03819775 -57.8203125 176.62890625 C-59.14848092 178.85704544 -59.14848092 178.85704544 -59 181 C-53.20249913 179.46399008 -48.66248921 176.47489419 -43.6875 173.25 C-42.88376953 172.73695313 -42.08003906 172.22390625 -41.25195312 171.6953125 C-36.44249201 168.61540015 -31.68116823 165.4680518 -26.94555664 162.27587891 C-24.69890912 160.80254725 -22.38069507 159.47698244 -20.03515625 158.16796875 C-16.23017148 155.98430187 -12.51997103 153.64309703 -8.7890625 151.3359375 C-6.08217084 149.66339827 -3.36760754 148.00406382 -0.6484375 146.3515625 C8.65398355 140.69615298 17.87675688 134.94037534 27 129 C26.78085938 128.48244141 26.56171875 127.96488281 26.3359375 127.43164062 C17.59718045 106.73925859 9.30709788 85.86837111 1 65 C0.67 65 0.34 65 0 65 Z " fill="#0793D4" transform="translate(146,7)"/>
<path d="M0 0 C0.29296875 2.74609375 0.29296875 2.74609375 0 6 C-2.01171875 8.16015625 -2.01171875 8.16015625 -4.6875 10.0625 C-8.47709714 12.8078526 -11.72800782 15.65226726 -15 19 C-16.92834213 20.80333237 -18.86221362 22.59589074 -20.8125 24.375 C-21.60406494 25.09888916 -21.60406494 25.09888916 -22.41162109 25.83740234 C-25.91079588 29.02905124 -29.44798128 32.17181335 -33.02734375 35.2734375 C-35.27261365 37.23860442 -37.47902573 39.24358518 -39.6875 41.25 C-44.10273951 45.23795827 -48.6221158 49.08396743 -53.17797852 52.90869141 C-56.55415647 55.75142231 -59.86188012 58.65193522 -63.125 61.625 C-67.72948029 65.80218452 -72.5006753 69.73379392 -77.33349609 73.64257812 C-79.23784112 75.19372936 -81.12923131 76.75988929 -83.01953125 78.328125 C-90.4775884 84.51215378 -97.98357013 90.57977279 -105.6953125 96.4453125 C-109.50521673 99.36585307 -113.22000001 102.40078131 -116.9375 105.4375 C-127.49304456 114.05180943 -138.19022425 122.4410986 -149.109375 130.59008789 C-153.26645177 133.69332158 -157.39476214 136.82846272 -161.5 140 C-183.29227534 156.82831091 -205.58701374 173.01167865 -228 189 C-229.32 188.34 -230.64 187.68 -232 187 C-231.06286429 181.0284841 -228.6438078 175.81792365 -225 171 C-221.25 170.0625 -221.25 170.0625 -218 170 C-216.78309467 168.23470405 -216.78309467 168.23470405 -216 166 C-214.33333333 164.33333333 -212.66666667 162.66666667 -211 161 C-210.43152344 160.10796875 -209.86304688 159.2159375 -209.27734375 158.296875 C-206.65169215 154.27310101 -203.33179689 151.00167334 -199.9375 147.625 C-199.31294922 146.98433594 -198.68839844 146.34367188 -198.04492188 145.68359375 C-197.44099609 145.07902344 -196.83707031 144.47445312 -196.21484375 143.8515625 C-195.39681274 143.02906006 -195.39681274 143.02906006 -194.56225586 142.18994141 C-193 141 -193 141 -190 141 C-189.74992187 140.401875 -189.49984375 139.80375 -189.2421875 139.1875 C-187.82524553 136.69225627 -186.46858383 135.62724311 -184.125 134 C-181.75979255 132.31056611 -179.75186114 130.75186114 -177.6875 128.6875 C-176 127 -176 127 -173 126 C-172.67 125.34 -172.34 124.68 -172 124 C-171.34 124 -170.68 124 -170 124 C-169.34 122.35 -168.68 120.7 -168 119 C-167.34 119 -166.68 119 -166 119 C-165.81824219 118.41992188 -165.63648438 117.83984375 -165.44921875 117.2421875 C-163.9581894 112.60852707 -162.31666424 108.30237645 -160 104 C-159.34 104 -158.68 104 -158 104 C-157.88785156 103.34773438 -157.77570313 102.69546875 -157.66015625 102.0234375 C-156.57416367 97.2109998 -155.58033493 93.8144021 -151.375 91 C-149.59848981 89.97331554 -147.80383972 88.97787101 -146 88 C-143.28194842 86.43322505 -140.57979432 84.8395215 -137.875 83.25 C-136.78155273 82.61457275 -136.78155273 82.61457275 -135.66601562 81.96630859 C-129.99260581 78.6510185 -124.50626967 75.11189956 -119.08544922 71.39941406 C-115.15648325 68.71757938 -111.14573166 66.33462704 -107 64 C-105.0564937 62.82235583 -103.11902974 61.63468644 -101.1875 60.4375 C-97.38529922 58.0838905 -93.57794208 55.73988997 -89.75390625 53.421875 C-88.25244518 52.51067859 -86.75114606 51.59921528 -85.25 50.6875 C-84.49662354 50.22996338 -83.74324707 49.77242676 -82.96704102 49.30102539 C-76.71553985 45.48305675 -70.56876481 41.51480704 -64.48144531 37.44018555 C-63.81983398 37.00359619 -63.15822266 36.56700684 -62.4765625 36.1171875 C-61.611521 35.53880127 -61.611521 35.53880127 -60.72900391 34.94873047 C-59 34 -59 34 -56.84521484 33.49267578 C-55.9318335 33.24880127 -55.9318335 33.24880127 -55 33 C-54.67 32.34 -54.34 31.68 -54 31 C-51.4375 30.375 -51.4375 30.375 -49 30 C-49 29.34 -49 28.68 -49 28 C-48.37996094 27.67128906 -47.75992188 27.34257813 -47.12109375 27.00390625 C-39.68553915 23.01013675 -32.4504053 18.72086534 -25.23339844 14.35058594 C-20.89043557 11.72429925 -16.53853579 9.11288135 -12.1875 6.5 C-11.30908447 5.97132324 -10.43066895 5.44264648 -9.52563477 4.89794922 C-8.29671509 4.15955811 -8.29671509 4.15955811 -7.04296875 3.40625 C-6.31102295 2.96603516 -5.57907715 2.52582031 -4.82495117 2.07226562 C-1.29804189 0 -1.29804189 0 0 0 Z " fill="#0A87D4" transform="translate(235,99)"/>
<path d="M0 0 C3 1 3 1 4.875 4.48828125 C5.59632076 6.09057054 6.30350892 7.69926264 7 9.3125 C7.38446289 10.18535645 7.76892578 11.05821289 8.16503906 11.95751953 C14.98956689 27.65937141 21.1942586 43.65921657 26.82836914 59.82446289 C28.31334575 63.84927864 30.05318348 67.72155075 31.88671875 71.59765625 C35.2393391 78.83225805 35 80.99315622 35 90 C26.09 90 17.18 90 8 90 C4.62374444 82.22676045 1.34830817 74.46064141 -1.65625 66.53515625 C-2.93197332 63.17896555 -4.23142928 59.83313154 -5.53833008 56.48901367 C-19 22.03254819 -19 22.03254819 -19 16 C-17.12890625 14.140625 -17.12890625 14.140625 -14.5625 12.25 C-9.48065899 8.39331039 -4.72074509 4.28743999 0 0 Z " fill="#011172" transform="translate(200,138)"/>
<path d="M0 0 C0.99 0.495 0.99 0.495 2 1 C1.94446431 3.72629748 1.49147119 5.47415174 -0.38916016 7.48632812 C-2.3196418 9.13876554 -4.2961208 10.70349013 -6.3125 12.25 C-7.04090088 12.82427734 -7.76930176 13.39855469 -8.51977539 13.99023438 C-13.56828711 17.95228729 -18.68179736 21.83023358 -23.83984375 25.6484375 C-27.58823009 28.43771881 -31.29395693 31.27985802 -35 34.125 C-59.00798802 52.52164553 -83.37756203 70.43556454 -108 88 C-109.32 87.34 -110.64 86.68 -112 86 C-111.06286429 80.0284841 -108.6438078 74.81792365 -105 70 C-101.25 69.0625 -101.25 69.0625 -98 69 C-96.78309467 67.23470405 -96.78309467 67.23470405 -96 65 C-94.33333333 63.33333333 -92.66666667 61.66666667 -91 60 C-90.43539062 59.10796875 -89.87078125 58.2159375 -89.2890625 57.296875 C-86.63968583 53.23099991 -83.2126072 49.99611555 -79.75 46.625 C-79.1003125 45.98433594 -78.450625 45.34367187 -77.78125 44.68359375 C-76.19199115 43.11770636 -74.59823583 41.55671491 -73 40 C-72.01 40.495 -72.01 40.495 -71 41 C-71.44915771 41.4439209 -71.89831543 41.8878418 -72.36108398 42.34521484 C-74.38915607 44.35253603 -76.41336416 46.36370999 -78.4375 48.375 C-79.14455078 49.07367188 -79.85160156 49.77234375 -80.58007812 50.4921875 C-81.25361328 51.1625 -81.92714844 51.8328125 -82.62109375 52.5234375 C-83.2442749 53.14138184 -83.86745605 53.75932617 -84.50952148 54.39599609 C-86.09048151 55.94660067 -86.09048151 55.94660067 -87 58 C-84.525 57.505 -84.525 57.505 -82 57 C-81.67 56.01 -81.34 55.02 -81 54 C-79.2578125 52.8671875 -79.2578125 52.8671875 -77.125 51.875 C-76.42632812 51.54242188 -75.72765625 51.20984375 -75.0078125 50.8671875 C-73 50 -73 50 -70 49 C-70 48.34 -70 47.68 -70 47 C-67.6640625 45.2734375 -67.6640625 45.2734375 -64.625 43.375 C-63.62726562 42.74335938 -62.62953125 42.11171875 -61.6015625 41.4609375 C-59 40 -59 40 -57 40 C-57 39.34 -57 38.68 -57 38 C-56.47792969 37.731875 -55.95585938 37.46375 -55.41796875 37.1875 C-49.91981237 34.2602854 -44.99947062 30.87425913 -40.00390625 27.1640625 C-36.2591588 24.46628606 -32.39431222 21.98402062 -28.49804688 19.51464844 C-23.22748437 16.16931331 -18.04314949 12.70316213 -12.88574219 9.18603516 C-10.26841383 7.41965736 -8.01231423 6.00410474 -5 5 C-5 4.34 -5 3.68 -5 3 C-2.625 1.3125 -2.625 1.3125 0 0 Z " fill="#090DB7" transform="translate(115,200)"/>
<path d="M0 0 C0.99 0.495 0.99 0.495 2 1 C1.50360236 5.06959357 0.67571561 6.78643572 -2.52734375 9.33203125 C-3.59178711 10.18764648 -3.59178711 10.18764648 -4.67773438 11.06054688 C-5.42345703 11.63869141 -6.16917969 12.21683594 -6.9375 12.8125 C-8.0502832 13.7087207 -8.0502832 13.7087207 -9.18554688 14.62304688 C-14.70300893 19 -14.70300893 19 -17 19 C-17 18.01 -17 17.02 -17 16 C-20.56478649 18.41330708 -24.1264154 20.83123444 -27.6875 23.25 C-28.69490234 23.93191406 -29.70230469 24.61382812 -30.74023438 25.31640625 C-31.71669922 25.98027344 -32.69316406 26.64414063 -33.69921875 27.328125 C-34.59471436 27.9355957 -35.49020996 28.54306641 -36.4128418 29.16894531 C-39.02679349 31.01896303 -41.50570804 32.9929405 -44 35 C-45.41370298 35.87309484 -46.85115917 36.70921959 -48.3125 37.5 C-49.09367187 37.92796875 -49.87484375 38.3559375 -50.6796875 38.796875 C-52.10244951 39.53460345 -53.54282039 40.24078414 -55.0078125 40.890625 C-60.37554031 43.28111107 -64.14610799 46.69249366 -68.41796875 50.6953125 C-71.65092848 53.5810103 -75.10487563 55.96182177 -78.69921875 58.37109375 C-80.82009688 59.87263226 -82.62299437 61.46091032 -84.5 63.25 C-88.41480602 66.76112099 -92.96275454 67.84457549 -98 69 C-96.25568005 65.20730433 -93.95420004 62.95420004 -91 60 C-90.43539062 59.10796875 -89.87078125 58.2159375 -89.2890625 57.296875 C-86.63968583 53.23099991 -83.2126072 49.99611555 -79.75 46.625 C-79.1003125 45.98433594 -78.450625 45.34367187 -77.78125 44.68359375 C-76.19199115 43.11770636 -74.59823583 41.55671491 -73 40 C-72.34 40.33 -71.68 40.66 -71 41 C-71.44915771 41.4439209 -71.89831543 41.8878418 -72.36108398 42.34521484 C-74.38915607 44.35253603 -76.41336416 46.36370999 -78.4375 48.375 C-79.14455078 49.07367188 -79.85160156 49.77234375 -80.58007812 50.4921875 C-81.25361328 51.1625 -81.92714844 51.8328125 -82.62109375 52.5234375 C-83.55586548 53.450354 -83.55586548 53.450354 -84.50952148 54.39599609 C-86.09048151 55.94660067 -86.09048151 55.94660067 -87 58 C-84.525 57.505 -84.525 57.505 -82 57 C-81.67 56.01 -81.34 55.02 -81 54 C-79.2578125 52.8671875 -79.2578125 52.8671875 -77.125 51.875 C-76.42632812 51.54242188 -75.72765625 51.20984375 -75.0078125 50.8671875 C-73 50 -73 50 -70 49 C-70 48.34 -70 47.68 -70 47 C-67.6640625 45.2734375 -67.6640625 45.2734375 -64.625 43.375 C-63.62726562 42.74335938 -62.62953125 42.11171875 -61.6015625 41.4609375 C-59 40 -59 40 -57 40 C-57 39.34 -57 38.68 -57 38 C-56.47792969 37.731875 -55.95585938 37.46375 -55.41796875 37.1875 C-49.91981237 34.2602854 -44.99947062 30.87425913 -40.00390625 27.1640625 C-36.2591588 24.46628606 -32.39431222 21.98402062 -28.49804688 19.51464844 C-23.22748437 16.16931331 -18.04314949 12.70316213 -12.88574219 9.18603516 C-10.26841383 7.41965736 -8.01231423 6.00410474 -5 5 C-5 4.34 -5 3.68 -5 3 C-2.625 1.3125 -2.625 1.3125 0 0 Z " fill="#0F33C7" transform="translate(115,200)"/>
<path d="M0 0 C0.66 0.33 1.32 0.66 2 1 C1.55084229 1.4439209 1.10168457 1.8878418 0.63891602 2.34521484 C-1.38915607 4.35253603 -3.41336416 6.36370999 -5.4375 8.375 C-6.14455078 9.07367188 -6.85160156 9.77234375 -7.58007812 10.4921875 C-8.59038086 11.49765625 -8.59038086 11.49765625 -9.62109375 12.5234375 C-10.2442749 13.14138184 -10.86745605 13.75932617 -11.50952148 14.39599609 C-13.09048151 15.94660067 -13.09048151 15.94660067 -14 18 C-12.35 17.67 -10.7 17.34 -9 17 C-8.67 16.01 -8.34 15.02 -8 14 C-6.36328125 12.9375 -6.36328125 12.9375 -4.3125 12 C-3.59449219 11.66613281 -2.87648438 11.33226562 -2.13671875 10.98828125 C-1.43160156 10.66214844 -0.72648437 10.33601562 0 10 C1.670625 9.1028125 1.670625 9.1028125 3.375 8.1875 C4.24125 7.795625 5.1075 7.40375 6 7 C6.66 7.33 7.32 7.66 8 8 C7.24976563 8.556875 6.49953125 9.11375 5.7265625 9.6875 C4.70304687 10.450625 3.67953125 11.21375 2.625 12 C2.0798877 12.40500732 1.53477539 12.81001465 0.97314453 13.22729492 C-2.49151141 15.8174608 -5.82060285 18.5184954 -9.125 21.3125 C-13.71337048 25.04427535 -18.39760126 27.18816041 -24 29 C-24 25.04435836 -22.59478606 23.89133304 -20 21 C-19.01 20.34 -18.02 19.68 -17 19 C-16.59136719 18.28457031 -16.18273438 17.56914062 -15.76171875 16.83203125 C-13.31013076 12.89100843 -10.12458701 9.91321363 -6.8125 6.6875 C-6.15830078 6.04232422 -5.50410156 5.39714844 -4.83007812 4.73242188 C-3.22451217 3.15029484 -1.6144531 1.5730487 0 0 Z " fill="#1527D6" transform="translate(42,240)"/>
<path d="M0 0 C0.99 0.495 0.99 0.495 2 1 C1.01 1.495 1.01 1.495 0 2 C0 1.34 0 0.68 0 0 Z M-1 2 C-0.896875 2.639375 -0.79375 3.27875 -0.6875 3.9375 C-0.3471875 4.9584375 -0.3471875 4.9584375 0 6 C0.99 6.33 1.98 6.66 3 7 C0.14723863 9.93200474 -2.65079784 12.64315404 -6 15 C-7.32 14.34 -8.64 13.68 -10 13 C-9.45276317 9.62537285 -8.9451 7.91765 -7 5 C-5.35636866 4.27840576 -3.68949614 3.60648579 -2 3 C-1.67 2.67 -1.34 2.34 -1 2 Z " fill="#030EAD" transform="translate(13,273)"/>
<path d="M0 0 C0.66 0.33 1.32 0.66 2 1 C1.91433603 3.912575 1.42089045 5.56798024 -0.625 7.66796875 C-2.38391375 9.16091772 -4.16313019 10.60436262 -6 12 C-7.32 11.34 -8.64 10.68 -10 10 C-10.391875 10.474375 -10.78375 10.94875 -11.1875 11.4375 C-13.40808374 13.35179633 -15.13375709 13.61266988 -18 14 C-14.61127367 10.41193683 -11.23858668 7.54315201 -7 5 C-6.34 5 -5.68 5 -5 5 C-5 4.34 -5 3.68 -5 3 C-2.625 1.3125 -2.625 1.3125 0 0 Z " fill="#1241CC" transform="translate(115,200)"/>
<path d="M0 0 C-4.455 3.465 -4.455 3.465 -9 7 C-9.66 6.67 -10.32 6.34 -11 6 C-8.34806708 2.26764996 -4.95872866 -2.47936433 0 0 Z M-20 7 C-19.34 7.99 -18.68 8.98 -18 10 C-16.02 9.34 -14.04 8.68 -12 8 C-14.26786278 11.64666307 -16.06404326 12.67897228 -20.1875 13.75 C-21.53908203 14.11351562 -21.53908203 14.11351562 -22.91796875 14.484375 C-23.60503906 14.65453125 -24.29210937 14.8246875 -25 15 C-23.58208437 12.06553114 -22.01667393 9.56667591 -20 7 Z " fill="#0D1EC0" transform="translate(42,254)"/>
<path d="M0 0 C0.375 2.6875 0.375 2.6875 0 6 C-1.823983 8.06398076 -3.72763839 9.39041053 -6 11 C-6.66 10.67 -7.32 10.34 -8 10 C-7.67 9.01 -7.34 8.02 -7 7 C-7.99 6.67 -8.98 6.34 -10 6 C-2.8 0 -2.8 0 0 0 Z " fill="#06CFDF" transform="translate(235,99)"/>
<path d="M0 0 C-0.90325616 1.32176485 -1.82317903 2.63215066 -2.75 3.9375 C-3.26046875 4.66839844 -3.7709375 5.39929688 -4.296875 6.15234375 C-6.19177915 8.20805399 -7.27425729 8.62669176 -10 9 C-8.09779284 2.41543676 -7.05273826 -0.20709509 0 0 Z " fill="#1C06F5" transform="translate(17,269)"/>
<path d="M0 0 C0.33 0.66 0.66 1.32 1 2 C1.99 2.33 2.98 2.66 4 3 C2.68 4.32 1.36 5.64 0 7 C-1.32 6.34 -2.64 5.68 -4 5 C-3.6875 3.0625 -3.6875 3.0625 -3 1 C-2.01 0.67 -1.02 0.34 0 0 Z " fill="#020A97" transform="translate(7,281)"/>
<path d="M0 0 C0.66 0.33 1.32 0.66 2 1 C1.25234375 1.54269531 0.5046875 2.08539063 -0.265625 2.64453125 C-1.25046875 3.35996094 -2.2353125 4.07539063 -3.25 4.8125 C-4.22453125 5.52019531 -5.1990625 6.22789062 -6.203125 6.95703125 C-7.8979155 8.19498576 -9.56477771 9.47437265 -11.171875 10.82421875 C-12.07679687 11.40623047 -12.07679687 11.40623047 -13 12 C-13.99 11.67 -14.98 11.34 -16 11 C-14.27278316 9.72651788 -12.54313762 8.45632943 -10.8125 7.1875 C-9.84957031 6.47980469 -8.88664062 5.77210938 -7.89453125 5.04296875 C-5.30857667 3.21779433 -2.80897441 1.46027858 0 0 Z " fill="#0E20BF" transform="translate(84,223)"/>
<path d="M0 0 C0.78375 0.04125 1.5675 0.0825 2.375 0.125 C-0.75121626 3.51917765 -3.19041027 5.7312718 -7.625 7.125 C-3.5992268 0.17139175 -3.5992268 0.17139175 0 0 Z " fill="#0F36CC" transform="translate(29.625,256.875)"/>
<path d="M0 0 C0.99 0.33 1.98 0.66 3 1 C1.73427767 2.15147661 0.46222094 3.29599314 -0.8125 4.4375 C-1.52019531 5.07558594 -2.22789063 5.71367187 -2.95703125 6.37109375 C-5 8 -5 8 -8 9 C-7.1875 7.0625 -7.1875 7.0625 -6 5 C-5.01 4.67 -4.02 4.34 -3 4 C-1.31461399 2.00334686 -1.31461399 2.00334686 0 0 Z " fill="#1647DE" transform="translate(59,226)"/>
<path d="M0 0 C3 1 3 1 4 2 C4.04063832 3.66617115 4.042721 5.33388095 4 7 C2.68 7 1.36 7 0 7 C0 4.69 0 2.38 0 0 Z " fill="#00629B" transform="translate(218,43)"/>
<path d="M0 0 C2 3 2 3 2 6 C-0.31 6.66 -2.62 7.32 -5 8 C-3.62845496 5.04590299 -2.01136276 2.55991624 0 0 Z " fill="#141CD4" transform="translate(22,261)"/>
<path d="M0 0 C0.66 0.33 1.32 0.66 2 1 C1.67 2.65 1.34 4.3 1 6 C0.01 6 -0.98 6 -2 6 C-2 5.34 -2 4.68 -2 4 C-2.99 4.33 -3.98 4.66 -5 5 C-5 4.34 -5 3.68 -5 3 C-2.625 1.3125 -2.625 1.3125 0 0 Z " fill="#0F51CA" transform="translate(115,200)"/>
<path d="M0 0 C0 1.98 0 3.96 0 6 C-1.98 6.99 -1.98 6.99 -4 8 C-3.67 6.68 -3.34 5.36 -3 4 C-3.66 4 -4.32 4 -5 4 C-5 3.34 -5 2.68 -5 2 C-1.125 0 -1.125 0 0 0 Z " fill="#92E5F1" transform="translate(235,99)"/>
<path d="M0 0 C1.32 0.33 2.64 0.66 4 1 C2.35 2.65 0.7 4.3 -1 6 C-1.99 5.67 -2.98 5.34 -4 5 C-2.68 3.35 -1.36 1.7 0 0 Z " fill="#081EB8" transform="translate(19,267)"/>
</svg>
